<svg xmlns="http://www.w3.org/2000/svg" xmlns:xlink="http://www.w3.org/1999/xlink" viewBox="0 0 63 66" fill="#fff" fill-rule="evenodd" stroke="#000" stroke-linecap="round" stroke-linejoin="round"><style><![CDATA[.B{fill-rule:nonzero}.C{fill:#f58534}]]></style><use xlink:href="#A" x=".5" y=".5"/><symbol id="A" overflow="visible"><g stroke="none"><g fill="#9d5125" class="B"><path d="M61.484 33.258C61.484 50.227 47.711 64 30.742 64S0 50.227 0 33.258 13.773 2.516 30.742 2.516s30.742 13.773 30.742 30.742z"/><path d="M0 30.742h61.484v2.516H0z"/></g><path d="M61.484 30.742c0 16.969-13.772 30.742-30.742 30.742S0 47.711 0 30.742 13.773 0 30.742 0s30.742 13.773 30.742 30.742z" class="B C"/><path d="M26.627 9.08h8.229l-2.142 18.33h-3.979z" class="B"/><path d="M30.742 33.531l11.324 1.088 6.461 6.257 1.564-1.292-5.747-8.604-12.582-4.387zm0 0l-11.358 1.088-6.427 6.257-1.564-1.292 5.747-8.604 12.582-4.387zM36.455 9.08c0 3.163-2.55 5.713-5.713 5.713s-5.713-2.55-5.713-5.713 2.55-5.713 5.713-5.713c3.163.034 5.713 2.584 5.713 5.713z" class="B"/><path d="M30.742 3.911c-2.857 0-5.203 2.346-5.203 5.203s2.346 5.203 5.203 5.203 5.203-2.346 5.203-5.203c0-2.891-2.346-5.203-5.203-5.203zm0 11.392a6.23 6.23 0 0 1-6.223-6.223 6.23 6.23 0 0 1 6.223-6.223 6.23 6.23 0 0 1 6.223 6.223 6.23 6.23 0 0 1-6.223 6.223zm1.87-6.223a1.89 1.89 0 0 1-1.87 1.87 1.89 1.89 0 0 1-1.87-1.87 1.89 1.89 0 0 1 1.87-1.87c1.02.034 1.87.85 1.87 1.87z" class="B C"/><path d="M34.857 29.994c0 2.273-1.842 4.115-4.115 4.115s-4.115-1.842-4.115-4.115 1.842-4.115 4.115-4.115 4.115 1.842 4.115 4.115z" class="B"/><path d="M30.742 26.389c-2.006 0-3.605 1.632-3.605 3.605 0 2.006 1.632 3.605 3.605 3.605 2.006 0 3.605-1.632 3.605-3.605a3.63 3.63 0 0 0-3.605-3.605zm0 8.23a4.63 4.63 0 0 1-4.625-4.625 4.63 4.63 0 0 1 4.625-4.625 4.63 4.63 0 0 1 4.625 4.625 4.63 4.63 0 0 1-4.625 4.625zM32 29.994c0 .714-.578 1.258-1.258 1.258-.714 0-1.258-.578-1.258-1.258 0-.714.578-1.258 1.258-1.258A1.28 1.28 0 0 1 32 29.994z" class="B C"/><path d="M17.479 39.481h26.525v14.657H17.479z" class="B"/><path d="M18.806 40.672h2.006v12.276h-2.006zm3.639 0h2.006v12.276h-2.006zm3.639 0h2.006v12.276h-2.006zm3.639 0h2.006v12.276h-2.006zm3.639 0h2.041v12.276h-2.041zm3.639 0h2.04v12.276h-2.04zm3.639 0h2.04v12.276h-2.04z" fill="#fcbf92" class="B"/></g></symbol></svg>